<svg width="127" height="22" viewBox="0 0 127 22" fill="none" xmlns="http://www.w3.org/2000/svg">
<g id="Logo">
<g id="Group 5353">
<g id="&#208;&#161;&#208;&#187;&#208;&#190;&#208;&#185; 1">
<path id="Vector" d="M47.0694 6.2074C49.9477 6.2074 51.8882 7.35664 51.8882 9.60656V10.1407H49.3009V9.60656C49.3009 8.70012 48.4601 8.24689 47.0694 8.24689H46.7784C45.3554 8.24689 44.5469 8.66774 44.5469 9.28283V9.44469C44.5469 10.1893 45.1937 10.3997 47.8133 10.8367C50.7724 11.3709 52.0822 12.245 52.0822 14.074V14.2359C52.0822 16.065 50.4328 17.3761 47.118 17.3761H46.8107C43.4635 17.3761 41.7656 16.0488 41.7656 13.7989V13.2971H44.3529V13.7989C44.3529 14.9481 45.2422 15.3204 46.8269 15.3204H47.118C48.6218 15.3204 49.4626 14.9643 49.4626 14.2683V14.1226C49.4626 13.4266 48.6865 13.119 46.0831 12.6982C43.3503 12.2611 41.9273 11.4356 41.9273 9.57419V9.36376C41.9273 7.35664 43.7707 6.2074 46.7784 6.2074H47.0694Z" fill="white"/>
<path id="Vector_2" d="M59.9915 17.2139V16.1294H59.6519C59.1507 16.8902 58.229 17.3758 56.9353 17.3758H56.6605C54.6554 17.3758 53.5234 16.2913 53.5234 13.9281V8.91028H56.1107V13.4587C56.1107 14.6079 56.709 15.2392 57.9056 15.2392H58.1805C59.377 15.2392 59.9915 14.6079 59.9915 13.4587V8.91028H62.5787V17.2139H59.9915Z" fill="white"/>
<path id="Vector_3" d="M67.0404 8.91016V9.9299H67.3799C67.9782 9.18533 68.8676 8.74829 70.1127 8.74829H70.4038C72.5059 8.74829 74.0421 9.9299 74.0421 12.5845V13.5395C74.0421 16.1941 72.5059 17.3757 70.4038 17.3757H70.1127C68.8352 17.3757 67.9621 16.9241 67.3799 16.1617H67.0404V21.0986H64.4531V8.91016H67.0404ZM67.0404 12.5521V13.5557C67.0404 14.7697 67.865 15.3524 69.094 15.3524H69.385C70.6301 15.3524 71.4548 14.7535 71.4548 13.5557V12.5521C71.4548 11.3705 70.6301 10.7716 69.385 10.7716H69.094C67.865 10.7716 67.0404 11.3543 67.0404 12.5521Z" fill="white"/>
<path id="Vector_4" d="M80.3125 8.74841C82.9483 8.74841 84.8402 10.0271 84.8402 12.617V13.6691H77.887V13.7662C77.887 14.964 78.647 15.5629 80.0053 15.5629H80.3125C81.4445 15.5629 82.1559 15.2392 82.3823 14.4461H84.7593C84.533 16.1618 83.11 17.3758 80.3125 17.3758H80.0053C77.3696 17.3758 75.4453 16.1456 75.4453 13.5558V12.617C75.4453 10.0271 77.3534 8.74841 80.0053 8.74841H80.3125ZM77.9032 12.0343H82.3823C82.2853 11.0793 81.493 10.5613 80.2964 10.5613H79.9891C78.7117 10.5613 78.0002 11.0793 77.9032 12.0343Z" fill="white"/>
<path id="Vector_5" d="M89.1107 8.91016V9.86516H89.4341C89.9192 9.13677 90.663 8.74829 91.7949 8.74829C93.5736 8.74829 94.5115 9.63855 94.5115 11.9694V12.5197H92.1183V12.1798C92.1183 11.3219 91.6332 10.8687 90.6145 10.8687C89.5958 10.8687 89.1107 11.3219 89.1107 12.1798V17.2138H86.5234V8.91016H89.1107Z" fill="white"/>
<path id="Vector_6" d="M105.187 5.23621V17.2142H102.599V16.1621H102.244C101.661 16.9245 100.804 17.3761 99.527 17.3761H99.2198C97.1177 17.3761 95.5977 16.2106 95.5977 13.5399V12.5849C95.5977 9.93029 97.1177 8.74867 99.2198 8.74867H99.527C100.772 8.74867 101.645 9.18571 102.244 9.93029H102.599V5.23621H105.187ZM98.1849 12.5525V13.5561C98.1849 14.7377 99.0096 15.3528 100.239 15.3528H100.53C101.775 15.3528 102.599 14.7539 102.599 13.5561V12.5525C102.599 11.3709 101.775 10.772 100.53 10.772H100.239C99.0096 10.772 98.1849 11.3871 98.1849 12.5525Z" fill="white"/>
<path id="Vector_7" d="M111.557 8.74829C114.484 8.74829 115.81 9.86516 115.81 11.759V17.2138H113.223V16.1617H112.835C112.188 17.005 111.266 17.3757 109.859 17.3757C108.113 17.3757 106.852 16.6004 106.852 14.8668C106.852 13.1834 107.967 12.196 110.555 12.196H113.223V11.759C113.223 10.9335 112.657 10.545 111.541 10.545H111.25C110.183 10.545 109.568 10.9173 109.568 11.7266H107.029C107.029 9.84897 108.469 8.74829 111.25 8.74829H111.557ZM109.406 14.6078C109.406 15.1581 109.859 15.4981 110.943 15.4981C112.026 15.4981 113.223 15.1096 113.223 13.928V13.6852H110.91C109.827 13.6852 109.406 13.9927 109.406 14.6078Z" fill="white"/>
<path id="Vector_8" d="M122.354 8.74841C125.055 8.74841 126.995 10.0433 126.995 12.5846V13.5396C126.995 16.1133 125.055 17.3758 122.354 17.3758H122.047C119.331 17.3758 117.406 16.0971 117.406 13.5396V12.5846C117.406 10.0433 119.331 8.74841 122.047 8.74841H122.354ZM119.993 12.5522V13.5558C119.993 14.6565 120.624 15.3525 122.047 15.3525H122.354C123.777 15.3525 124.408 14.6565 124.408 13.5558V12.5522C124.408 11.4516 123.777 10.7717 122.354 10.7717H122.047C120.624 10.7717 119.993 11.4516 119.993 12.5522Z" fill="white"/>
</g>
<path id="Vector_9" d="M24.9841 4.76102L26.9315 12.8991C27.145 13.7911 26.4695 14.6483 25.5532 14.6483H7.99015C6.31709 14.6483 4.82207 13.6025 4.24694 12.0298L4.08742 11.5936C4.00278 11.3622 4.17393 11.117 4.42017 11.117H15.8902C16.026 11.117 16.1361 11.0068 16.1361 10.8708C16.1361 9.85107 15.3103 9.02437 14.2915 9.02437H5.93347C4.26041 9.02437 2.7654 7.97857 2.19027 6.40589L2.04669 6.01329C1.96205 5.78186 2.13321 5.53671 2.37942 5.53671H13.2771C13.4129 5.53671 13.523 5.42648 13.523 5.2905C13.523 4.27075 12.6972 3.44409 11.6784 3.44409H3.89273C2.21968 3.44409 0.724665 2.39829 0.149535 0.825609L0.0219036 0.476611C-0.0627337 0.245152 0.108423 0 0.354632 0H18.9541C21.8222 0 24.316 1.969 24.9841 4.76102Z" fill="url(#paint0_linear_8758_27632)"/>
<path id="Vector_10" d="M31.879 7.1834L34.6099 18.9242C34.817 19.8139 34.1422 20.6647 33.2297 20.6647H14.9112C13.1762 20.6647 11.6405 19.5413 11.1135 17.8866L10.9278 17.3039C10.8185 16.9607 11.0744 16.6102 11.4342 16.6102H28.1615C29.0792 16.6102 29.7549 15.7505 29.539 14.8577L27.0957 4.75537C27.0147 4.42054 27.2681 4.09814 27.6122 4.09814H27.9967C29.8499 4.09814 31.4587 5.37663 31.879 7.1834Z" fill="url(#paint1_linear_8758_27632)"/>
</g>
</g>
<defs>
<linearGradient id="paint0_linear_8758_27632" x1="13.4795" y1="0" x2="13.4795" y2="14.6483" gradientUnits="userSpaceOnUse">
<stop stop-color="#FFC803"/>
<stop offset="1" stop-color="#FFA903"/>
</linearGradient>
<linearGradient id="paint1_linear_8758_27632" x1="22.7415" y1="4.09814" x2="22.7415" y2="20.6647" gradientUnits="userSpaceOnUse">
<stop stop-color="#FF7421"/>
<stop offset="1" stop-color="#EC5901"/>
</linearGradient>
</defs>
</svg>
