<svg width="375" height="140" viewBox="0 0 375 140" fill="none" xmlns="http://www.w3.org/2000/svg">
<g filter="url(#filter0_d_8758_23354)">
<rect x="4" width="367" height="132" rx="30" fill="#121E28" shape-rendering="crispEdges"/>
<rect x="5" y="1" width="365" height="130" rx="29" stroke="#2A3744" stroke-width="2" shape-rendering="crispEdges"/>
<path d="M132.971 51.8788H137.236L149.171 79.5843H143.536L140.954 73.2449H128.94L126.436 79.5843H120.918L132.971 51.8788ZM139.232 69.0187L134.966 57.7486L130.623 69.0187H139.232Z" fill="white"/>
<path d="M154.598 51.8788H159.529V75.1233H173.482V79.5843H154.598V51.8788Z" fill="white"/>
<path d="M177.238 51.8788H182.169V75.1233H196.122V79.5843H177.238V51.8788Z" fill="white"/>
<path d="M199.761 51.8788H204.691V79.5843H199.761V51.8788Z" fill="white"/>
<path d="M222.079 51.8788H226.344L238.279 79.5843H232.644L230.062 73.2449H218.048L215.544 79.5843H210.026L222.079 51.8788ZM228.34 69.0187L224.074 57.7486L219.731 69.0187H228.34Z" fill="white"/>
<path d="M243.706 51.8788H250.241L263.663 72.4623H263.742V51.8788H268.672V79.5843H262.411L248.715 58.3356H248.637V79.5843H243.706V51.8788Z" fill="white"/>
<path d="M296.217 58.3747C295.2 57.279 294.209 56.5486 293.243 56.1833C292.304 55.8181 291.352 55.6355 290.387 55.6355C288.952 55.6355 287.647 55.8964 286.473 56.4181C285.326 56.9138 284.334 57.6182 283.499 58.5313C282.665 59.4183 282.012 60.4618 281.543 61.6618C281.099 62.8619 280.878 64.1532 280.878 65.5359C280.878 67.0229 281.099 68.3925 281.543 69.6448C282.012 70.897 282.665 71.9797 283.499 72.8927C284.334 73.8058 285.326 74.5232 286.473 75.045C287.647 75.5668 288.952 75.8276 290.387 75.8276C291.508 75.8276 292.591 75.5668 293.635 75.045C294.704 74.4971 295.696 73.6362 296.609 72.4623L300.678 75.3581C299.426 77.0799 297.9 78.3321 296.1 79.1147C294.3 79.8974 292.382 80.2887 290.348 80.2887C288.208 80.2887 286.239 79.9495 284.439 79.2713C282.665 78.5669 281.125 77.5886 279.821 76.3364C278.543 75.058 277.538 73.5319 276.808 71.7579C276.077 69.9839 275.712 68.0143 275.712 65.849C275.712 63.6315 276.077 61.6227 276.808 59.8226C277.538 57.9965 278.543 56.4442 279.821 55.1659C281.125 53.8876 282.665 52.9093 284.439 52.231C286.239 51.5266 288.208 51.1744 290.348 51.1744C292.226 51.1744 293.961 51.5136 295.552 52.1919C297.17 52.8441 298.67 53.9659 300.052 55.5572L296.217 58.3747Z" fill="white"/>
<path d="M306.336 51.8788H327.297V56.3399H311.266V63.1488H326.593V67.6099H311.266V75.1233H328.002V79.5843H306.336V51.8788Z" fill="white"/>
<path fill-rule="evenodd" clip-rule="evenodd" d="M73.5228 92.0457C88.171 92.0457 100.046 80.171 100.046 65.5228C100.046 50.8747 88.171 39 73.5228 39C58.8747 39 47 50.8747 47 65.5228C47 80.171 58.8747 92.0457 73.5228 92.0457ZM56.043 78.332C56.043 78.332 63.1258 71.2492 67.3453 64.0157C71.5649 56.7822 73.6746 48.0417 73.6746 48.0417C73.6746 48.0417 75.6337 56.4808 80.0039 64.0157C84.3742 71.5506 91.1556 78.332 91.1556 78.332C91.1556 78.332 83.1686 75.1674 73.6746 75.1674C64.1807 75.1674 56.043 78.332 56.043 78.332Z" fill="white"/>
</g>
<defs>
<filter id="filter0_d_8758_23354" x="0" y="0" width="375" height="140" filterUnits="userSpaceOnUse" color-interpolation-filters="sRGB">
<feFlood flood-opacity="0" result="BackgroundImageFix"/>
<feColorMatrix in="SourceAlpha" type="matrix" values="0 0 0 0 0 0 0 0 0 0 0 0 0 0 0 0 0 0 127 0" result="hardAlpha"/>
<feOffset dy="4"/>
<feGaussianBlur stdDeviation="2"/>
<feComposite in2="hardAlpha" operator="out"/>
<feColorMatrix type="matrix" values="0 0 0 0 0 0 0 0 0 0 0 0 0 0 0 0 0 0 0.25 0"/>
<feBlend mode="normal" in2="BackgroundImageFix" result="effect1_dropShadow_8758_23354"/>
<feBlend mode="normal" in="SourceGraphic" in2="effect1_dropShadow_8758_23354" result="shape"/>
</filter>
</defs>
</svg>
