<svg width="138" height="46" viewBox="0 0 138 46" fill="none" xmlns="http://www.w3.org/2000/svg">
<rect x="0.573744" y="1.34669" width="136.853" height="43.8525" rx="7.42626" fill="#121E28"/>
<g clip-path="url(#clip0_8758_26898)">
<path d="M40.6173 16.8379L40.0272 15.8015C39.9809 15.7203 39.9164 15.6509 39.8389 15.5987C39.7614 15.5465 39.6728 15.5129 39.5801 15.5005C39.4875 15.4882 39.3932 15.4974 39.3047 15.5275C39.2162 15.5577 39.1359 15.6078 39.0699 15.6741L37.7126 17.0302C37.6133 17.13 37.5516 17.2609 37.5378 17.401C37.5241 17.541 37.5591 17.6815 37.637 17.7986C38.132 18.5549 38.5286 19.3712 38.8173 20.2277C39.3568 21.8288 39.5074 23.5353 39.2568 25.2062C39.0062 26.8771 38.3615 28.4643 37.3761 29.8367C36.3906 31.2091 35.0926 32.3272 33.5895 33.0987C32.0864 33.8702 30.4212 34.2728 28.7316 34.2733C26.9923 34.2781 25.2788 33.8528 23.7437 33.0352L26.0393 30.7383C27.4619 31.2764 29.0131 31.3754 30.4925 31.0225C31.9719 30.6697 33.3115 29.8812 34.3381 28.7591C35.3647 27.6369 36.0311 26.2326 36.2512 24.7277C36.4712 23.2229 36.2349 21.6866 35.5727 20.3174C35.5306 20.2297 35.4682 20.1534 35.3905 20.0949C35.3129 20.0363 35.2224 19.9973 35.1265 19.981C35.0307 19.9647 34.9323 19.9716 34.8397 20.0012C34.747 20.0308 34.6629 20.0821 34.5942 20.151L33.2203 21.5154C33.1471 21.5886 33.0938 21.6792 33.0655 21.7788C33.0372 21.8784 33.0348 21.9836 33.0586 22.0843L33.1767 22.5777C33.3798 23.4419 33.3261 24.3467 33.0224 25.1809C32.7186 26.0151 32.1779 26.7424 31.4667 27.2737C30.7554 27.805 29.9045 28.1171 29.0184 28.1717C28.1323 28.2263 27.2495 28.021 26.4784 27.581L25.8729 27.234C25.7572 27.1673 25.6227 27.1408 25.4904 27.1585C25.358 27.1763 25.2352 27.2372 25.1411 27.332L19.5335 32.9384C19.4723 32.9996 19.4249 33.0732 19.3944 33.1542C19.3639 33.2353 19.3511 33.3219 19.3568 33.4082C19.3625 33.4946 19.3866 33.5788 19.4274 33.6551C19.4683 33.7314 19.525 33.7981 19.5937 33.8508L20.4199 34.4846C22.8026 36.3208 25.7283 37.3123 28.7363 37.3032C31.1312 37.3001 33.4833 36.6689 35.558 35.4727C37.6327 34.2764 39.3573 32.5569 40.5596 30.4857C41.762 28.4146 42.4001 26.0643 42.4102 23.6695C42.4204 21.2747 41.8021 18.9191 40.6173 16.8379Z" fill="white"/>
<path d="M37.0481 12.7599C34.6657 10.9231 31.7399 9.93112 28.7317 9.94019C26.3357 9.94205 23.9821 10.5726 21.9061 11.769C19.8302 12.9653 18.1045 14.6855 16.9015 16.7576C15.6986 18.8297 15.0604 21.1813 15.0509 23.5772C15.0414 25.9732 15.6607 28.3298 16.8472 30.4114L17.4373 31.4465C17.4838 31.5277 17.5484 31.597 17.6259 31.6492C17.7035 31.7014 17.7921 31.735 17.8848 31.7474C17.9775 31.7599 18.0718 31.7508 18.1604 31.721C18.249 31.6911 18.3295 31.6412 18.3957 31.5752L19.7507 30.2202C19.8493 30.1203 19.9106 29.9896 19.9243 29.85C19.9381 29.7103 19.9035 29.5702 19.8263 29.453C19.3309 28.697 18.9342 27.8806 18.646 27.0239C18.1065 25.4228 17.9559 23.7163 18.2065 22.0454C18.4571 20.3746 19.1018 18.7873 20.0873 17.4149C21.0727 16.0426 22.3707 14.9244 23.8738 14.1529C25.377 13.3815 27.0421 12.9788 28.7317 12.9783C30.4709 12.9744 32.1841 13.4009 33.7185 14.22L31.4216 16.5157C30.271 16.0796 29.0317 15.9294 27.8103 16.078C26.5888 16.2266 25.4217 16.6696 24.4092 17.3688C23.3968 18.0681 22.5692 19.0027 21.9977 20.0924C21.4262 21.182 21.1278 22.3942 21.1282 23.6247C21.1282 23.7509 21.1624 24.3269 21.173 24.4261C21.2661 25.2978 21.5084 26.147 21.8895 26.9366C21.9316 27.0243 21.9942 27.1006 22.072 27.1591C22.1497 27.2176 22.2403 27.2567 22.3363 27.273C22.4322 27.2893 22.5306 27.2824 22.6234 27.2528C22.7161 27.2232 22.8003 27.1719 22.8691 27.103L24.243 25.728C24.3162 25.655 24.3695 25.5646 24.398 25.4652C24.4265 25.3659 24.4292 25.2609 24.4059 25.1602L24.2878 24.6657C24.0845 23.8014 24.1379 22.8966 24.4416 22.0623C24.7454 21.228 25.2861 20.5005 25.9975 19.9693C26.7089 19.438 27.5599 19.1261 28.4462 19.0718C29.3324 19.0175 30.2151 19.2231 30.9861 19.6635L31.5916 20.0106C31.7074 20.0766 31.8418 20.1028 31.974 20.0851C32.1062 20.0674 32.2289 20.0068 32.3234 19.9126L37.9298 14.3061C37.9911 14.2449 38.0386 14.1713 38.0692 14.0902C38.0998 14.0091 38.1127 13.9225 38.1072 13.836C38.1016 13.7495 38.0776 13.6652 38.0368 13.5888C37.9961 13.5123 37.9395 13.4454 37.8708 13.3926L37.0481 12.7599Z" fill="white"/>
<path d="M60.0952 27.3982C59.9929 27.3152 59.8644 27.2712 59.7327 27.2743C59.601 27.2773 59.4747 27.3271 59.3764 27.4147C58.4971 28.097 57.4773 28.7284 55.9865 28.7284C53.2577 28.7284 51.0375 26.4304 51.0375 23.6035C51.0375 20.7767 53.2494 18.4586 55.9665 18.4586C57.1468 18.4586 58.4215 18.9555 59.3587 19.7782C59.4115 19.8394 59.4772 19.8883 59.551 19.9214C59.6248 19.9544 59.7051 19.9708 59.7859 19.9694C59.856 19.9638 59.9241 19.943 59.9852 19.9083C60.0464 19.8736 60.0992 19.826 60.14 19.7687L61.0276 18.8552C61.0841 18.8005 61.1287 18.7347 61.1586 18.662C61.1884 18.5893 61.2029 18.5112 61.2011 18.4326C61.1978 18.3528 61.1781 18.2745 61.1431 18.2026C61.1082 18.1307 61.0588 18.0668 60.9981 18.0148C59.4484 16.6645 57.8916 16.0626 55.9452 16.0626C51.7906 16.0626 48.4102 19.4642 48.4102 23.6448C48.4117 25.6433 49.2059 27.5596 50.6185 28.9733C52.0311 30.387 53.9467 31.1827 55.9452 31.1858C56.8841 31.1969 57.8158 31.0222 58.6868 30.6718C59.5579 30.3214 60.351 29.8021 61.0205 29.1439C61.0793 29.084 61.1254 29.0129 61.1563 28.9348C61.1871 28.8568 61.2019 28.7734 61.2 28.6895C61.1984 28.6227 61.1833 28.5569 61.1558 28.4961C61.1282 28.4352 61.0886 28.3806 61.0394 28.3354L60.0952 27.3982Z" fill="white"/>
<path d="M66.5551 16.2679H65.2107C65.0607 16.273 64.9183 16.335 64.8124 16.4413C64.7065 16.5477 64.645 16.6904 64.6406 16.8404V30.4139C64.6447 30.5641 64.706 30.7071 64.812 30.8137C64.9179 30.9203 65.0605 30.9825 65.2107 30.9875H66.5551C66.7053 30.9825 66.8479 30.9203 66.9538 30.8137C67.0598 30.7071 67.121 30.5641 67.1252 30.4139V16.8404C67.1208 16.6904 67.0593 16.5477 66.9534 16.4413C66.8475 16.335 66.7051 16.273 66.5551 16.2679Z" fill="white"/>
<path d="M82.4638 20.8368C82.4638 18.3181 80.39 16.2679 77.8405 16.2679H72.2966C72.1452 16.2685 72.0002 16.3291 71.8934 16.4364C71.7865 16.5437 71.7266 16.6889 71.7266 16.8403V30.4139C71.7262 30.5655 71.7861 30.711 71.893 30.8186C71.9999 30.9261 72.145 30.9869 72.2966 30.9875H73.621C73.7712 30.9824 73.9138 30.9203 74.0197 30.8137C74.1256 30.7071 74.1869 30.5641 74.191 30.4139V25.3657H76.9695L79.6311 30.6948C79.6795 30.7821 79.7505 30.8548 79.8367 30.9052C79.9229 30.9557 80.021 30.9821 80.1209 30.9816H81.7096C81.81 30.9849 81.9094 30.9617 81.9979 30.9142C82.0864 30.8667 82.1608 30.7967 82.2136 30.7113C82.2638 30.6211 82.2902 30.5195 82.2902 30.4162C82.2902 30.3129 82.2638 30.2114 82.2136 30.1211L79.513 25.0883C81.3378 24.2774 82.4638 22.6651 82.4638 20.8368ZM79.9793 20.8782C79.9793 22.1564 78.9253 23.2388 77.6777 23.2388H74.2324V18.6226H77.6729C78.9229 18.6226 79.9745 19.6554 79.9745 20.8782H79.9793Z" fill="white"/>
<path d="M96.9358 27.3982C96.8335 27.3152 96.705 27.2712 96.5733 27.2743C96.4416 27.2773 96.3153 27.3271 96.217 27.4147C95.3376 28.097 94.3178 28.7284 92.8271 28.7284C90.0982 28.7284 87.8781 26.4304 87.8781 23.6035C87.8781 20.7767 90.0888 18.4586 92.8059 18.4586C93.9862 18.4586 95.2609 18.9555 96.1992 19.7782C96.2523 19.84 96.3186 19.8893 96.3931 19.9224C96.4676 19.9554 96.5486 19.9715 96.6301 19.9694C96.7002 19.9638 96.7682 19.943 96.8293 19.9083C96.8905 19.8736 96.9434 19.826 96.9842 19.7687L97.8717 18.8552C97.9281 18.8004 97.9725 18.7346 98.0021 18.6619C98.0318 18.5892 98.0461 18.5111 98.0441 18.4326C98.0412 18.3528 98.0218 18.2744 97.9871 18.2025C97.9523 18.1305 97.903 18.0666 97.8422 18.0148C96.296 16.6645 94.7392 16.0626 92.7929 16.0626C88.6382 16.0626 85.2578 19.4642 85.2578 23.6448C85.2594 25.6433 86.0536 27.5596 87.4661 28.9733C88.8787 30.387 90.7944 31.1827 92.7929 31.1858C93.7317 31.1968 94.6634 31.022 95.5344 30.6716C96.4054 30.3212 97.1986 29.802 97.8682 29.1439C97.927 29.0838 97.9732 29.0125 98.004 28.9343C98.0349 28.856 98.0497 28.7724 98.0476 28.6883C98.0461 28.6215 98.0311 28.5557 98.0035 28.4949C97.9759 28.434 97.9363 28.3794 97.8871 28.3342L96.9358 27.3982Z" fill="white"/>
<path d="M109.3 28.7084H103.965V16.8404C103.961 16.6904 103.899 16.5477 103.793 16.4413C103.687 16.335 103.545 16.273 103.395 16.2679H102.051C101.899 16.2686 101.754 16.3292 101.647 16.4364C101.54 16.5437 101.48 16.689 101.48 16.8404V30.4139C101.48 30.5655 101.54 30.7111 101.647 30.8186C101.754 30.9262 101.899 30.9869 102.051 30.9875H109.3C109.375 30.9874 109.45 30.9724 109.519 30.9435C109.588 30.9146 109.651 30.8723 109.704 30.819C109.757 30.7658 109.8 30.7026 109.828 30.6331C109.857 30.5636 109.871 30.4891 109.871 30.4139V29.2867C109.872 29.2112 109.858 29.1362 109.83 29.0661C109.801 28.9961 109.759 28.9323 109.706 28.8785C109.653 28.8248 109.59 28.7821 109.52 28.7528C109.45 28.7236 109.376 28.7085 109.3 28.7084Z" fill="white"/>
<path d="M121.374 18.5649C121.526 18.5643 121.671 18.5037 121.778 18.3964C121.884 18.2891 121.944 18.1438 121.944 17.9924V16.844C121.944 16.6926 121.884 16.5473 121.778 16.44C121.671 16.3328 121.526 16.2722 121.374 16.2715H113.23C113.079 16.2722 112.934 16.3328 112.827 16.44C112.72 16.5473 112.66 16.6926 112.66 16.844V30.4175C112.66 30.5691 112.72 30.7147 112.827 30.8222C112.933 30.9298 113.079 30.9905 113.23 30.9911H121.374C121.526 30.9905 121.671 30.9298 121.778 30.8222C121.885 30.7147 121.945 30.5691 121.944 30.4175V29.2903C121.944 29.1389 121.884 28.9937 121.778 28.8864C121.671 28.7791 121.526 28.7185 121.374 28.7179H115.119V24.6682H120.372C120.524 24.6679 120.669 24.6075 120.776 24.5002C120.883 24.3928 120.944 24.2474 120.944 24.0958V22.9485C120.939 22.7981 120.878 22.655 120.772 22.5483C120.666 22.4417 120.523 22.3797 120.372 22.3749H115.122V18.5649H121.374Z" fill="white"/>
</g>
<rect x="0.573744" y="1.34669" width="136.853" height="43.8525" rx="7.42626" stroke="#2A3744" stroke-width="1.14749"/>
<defs>
<clipPath id="clip0_8758_26898">
<rect width="106.839" height="39.7721" fill="white" transform="translate(15 3.75403)"/>
</clipPath>
</defs>
</svg>
