<svg width="318" height="114" viewBox="0 0 318 114" fill="none" xmlns="http://www.w3.org/2000/svg">
<rect x="1.45739" y="0.863636" width="315.227" height="112.273" rx="23.1364" fill="#121E28"/>
<rect x="1.45739" y="0.863636" width="315.227" height="112.273" rx="23.1364" stroke="#2A3744" stroke-width="1.72727"/>
<g clip-path="url(#clip0_8758_23324)">
<path d="M96.1942 41.934L94.8871 39.6386C94.7846 39.4587 94.6419 39.305 94.4702 39.1893C94.2984 39.0737 94.1023 38.9993 93.897 38.972C93.6918 38.9446 93.483 38.9651 93.287 39.0318C93.091 39.0984 92.913 39.2095 92.767 39.3563L89.7606 42.3601C89.5408 42.581 89.404 42.8711 89.3735 43.1812C89.3431 43.4913 89.4207 43.8025 89.5933 44.062C90.6895 45.7371 91.568 47.545 92.2075 49.4421C93.4024 52.9884 93.736 56.7682 93.1809 60.4689C92.6258 64.1697 91.1979 67.6853 89.0152 70.725C86.8325 73.7647 83.9577 76.2412 80.6284 77.9499C77.2991 79.6587 73.6109 80.5505 69.8687 80.5517C66.0164 80.5623 62.2212 79.6202 58.8209 77.8093L63.9056 72.722C67.0564 73.9137 70.4922 74.133 73.7689 73.3515C77.0456 72.57 80.0126 70.8236 82.2864 68.3382C84.5602 65.8527 86.0362 62.7424 86.5237 59.4092C87.0112 56.0761 86.4877 52.6733 85.0209 49.6408C84.9278 49.4466 84.7895 49.2776 84.6175 49.1479C84.4456 49.0183 84.245 48.9318 84.0327 48.8956C83.8204 48.8595 83.6025 48.8749 83.3974 48.9404C83.1922 49.0059 83.0058 49.1197 82.8537 49.2722L79.8107 52.2942C79.6485 52.4563 79.5304 52.6571 79.4677 52.8777C79.405 53.0982 79.3998 53.3312 79.4526 53.5543L79.714 54.6471C80.1639 56.5613 80.0451 58.5652 79.3723 60.4128C78.6995 62.2605 77.5019 63.8715 75.9265 65.0483C74.3512 66.225 72.4665 66.9163 70.5039 67.0372C68.5413 67.1581 66.586 66.7034 64.8781 65.7289L63.537 64.9603C63.2807 64.8127 62.9829 64.7539 62.6897 64.7931C62.3966 64.8324 62.1246 64.9674 61.9162 65.1773L49.4959 77.5949C49.3603 77.7305 49.2553 77.8935 49.1878 78.073C49.1202 78.2524 49.0919 78.4443 49.1045 78.6356C49.1171 78.8269 49.1705 79.0133 49.2609 79.1824C49.3514 79.3514 49.477 79.4992 49.6292 79.6158L51.4592 81.0196C56.7366 85.0865 63.2166 87.2827 69.8792 87.2624C75.1835 87.2557 80.3933 85.8577 84.9884 83.208C89.5836 80.5584 93.4034 76.7499 96.0665 72.1625C98.7297 67.5752 100.143 62.3696 100.165 57.0653C100.188 51.761 98.8185 46.5436 96.1942 41.934Z" fill="white"/>
<path d="M88.2921 32.9017C83.0153 28.8334 76.535 26.6362 69.872 26.6563C64.5651 26.6604 59.3522 28.0571 54.7542 30.7068C50.1561 33.3566 46.3339 37.1665 43.6695 41.7561C41.0051 46.3456 39.5917 51.554 39.5706 56.8609C39.5494 62.1677 40.9213 67.3872 43.5492 71.9978L44.8563 74.2905C44.9592 74.4702 45.1022 74.6238 45.274 74.7394C45.4459 74.855 45.6421 74.9294 45.8473 74.957C46.0526 74.9845 46.2615 74.9645 46.4577 74.8983C46.654 74.8321 46.8324 74.7217 46.9791 74.5755L49.9802 71.5743C50.1985 71.3531 50.3342 71.0636 50.3647 70.7543C50.3951 70.445 50.3185 70.1346 50.1475 69.8751C49.0503 68.2005 48.1717 66.3924 47.5333 64.4949C46.3384 60.9486 46.0048 57.1689 46.5599 53.4681C47.115 49.7673 48.5429 46.2518 50.7256 43.2121C52.9083 40.1724 55.7831 37.6958 59.1124 35.9871C62.4417 34.2783 66.1299 33.3865 69.872 33.3853C73.7243 33.3766 77.5189 34.3214 80.9173 36.1355L75.8299 41.2203C73.2815 40.2544 70.5366 39.9217 67.8312 40.2509C65.1258 40.58 62.5408 41.5611 60.2983 43.1099C58.0558 44.6586 56.2228 46.7287 54.957 49.1422C53.6911 51.5558 53.0302 54.2405 53.031 56.9659C53.031 57.2456 53.1069 58.5214 53.1304 58.741C53.3365 60.6717 53.8733 62.5527 54.7172 64.3015C54.8107 64.4957 54.9493 64.6647 55.1215 64.7943C55.2937 64.9239 55.4944 65.0104 55.7069 65.0465C55.9194 65.0826 56.1374 65.0673 56.3427 65.0018C56.5481 64.9363 56.7347 64.8225 56.8871 64.6701L59.93 61.6245C60.0921 61.4628 60.2103 61.2625 60.2734 61.0425C60.3366 60.8225 60.3425 60.59 60.2908 60.367L60.0294 59.2717C59.579 57.3574 59.6973 55.3533 60.37 53.5054C61.0428 51.6575 62.2405 50.0463 63.8161 48.8696C65.3918 47.6929 67.2768 47.002 69.2396 46.8817C71.2025 46.7614 73.1577 47.217 74.8653 48.1925L76.2064 48.961C76.463 49.1074 76.7606 49.1654 77.0534 49.1262C77.3462 49.087 77.6181 48.9527 77.8272 48.7441L90.2449 36.3264C90.3807 36.1907 90.486 36.0277 90.5537 35.8481C90.6214 35.6685 90.6501 35.4766 90.6377 35.2851C90.6253 35.0935 90.5722 34.9069 90.4819 34.7375C90.3917 34.5681 90.2663 34.42 90.1142 34.3029L88.2921 32.9017Z" fill="white"/>
<path d="M139.342 65.3241C139.116 65.1401 138.831 65.0428 138.539 65.0495C138.248 65.0562 137.968 65.1665 137.75 65.3607C135.802 66.8717 133.544 68.2703 130.242 68.2703C124.198 68.2703 119.28 63.1804 119.28 56.9192C119.28 50.6581 124.179 45.5237 130.197 45.5237C132.812 45.5237 135.635 46.6243 137.711 48.4465C137.828 48.5822 137.973 48.6905 138.137 48.7637C138.3 48.8369 138.478 48.8731 138.657 48.87C138.812 48.8576 138.963 48.8115 139.098 48.7347C139.234 48.6579 139.351 48.5524 139.441 48.4255L141.407 46.4021C141.532 46.281 141.631 46.1354 141.697 45.9743C141.763 45.8133 141.795 45.6403 141.792 45.4662C141.784 45.2893 141.74 45.1159 141.663 44.9567C141.586 44.7975 141.476 44.6559 141.342 44.5408C137.909 41.5501 134.461 40.2168 130.15 40.2168C120.948 40.2168 113.461 47.7511 113.461 57.0107C113.464 61.4372 115.223 65.6815 118.352 68.8127C121.481 71.9439 125.724 73.7063 130.15 73.7132C132.23 73.7378 134.293 73.3509 136.223 72.5747C138.152 71.7985 139.909 70.6484 141.392 69.1905C141.522 69.0578 141.624 68.9004 141.692 68.7275C141.76 68.5546 141.793 68.3699 141.789 68.184C141.785 68.0361 141.752 67.8905 141.691 67.7557C141.63 67.6209 141.542 67.4999 141.433 67.3998L139.342 65.3241Z" fill="white"/>
<path d="M153.65 40.6716H150.673C150.341 40.6828 150.025 40.8201 149.791 41.0557C149.556 41.2912 149.42 41.6073 149.41 41.9395V72.0034C149.419 72.3362 149.555 72.6529 149.79 72.889C150.024 73.1251 150.34 73.2628 150.673 73.274H153.65C153.983 73.2628 154.299 73.1251 154.534 72.889C154.768 72.6529 154.904 72.3362 154.913 72.0034V41.9395C154.903 41.6073 154.767 41.2912 154.533 41.0557C154.298 40.8201 153.983 40.6828 153.65 40.6716Z" fill="white"/>
<path d="M188.887 50.7914C188.887 45.2126 184.294 40.6716 178.647 40.6716H166.368C166.033 40.673 165.712 40.8072 165.475 41.0448C165.238 41.2825 165.105 41.6042 165.105 41.9395V72.0034C165.105 72.3392 165.237 72.6616 165.474 72.8998C165.711 73.138 166.032 73.2726 166.368 73.274H169.301C169.634 73.2628 169.95 73.1251 170.185 72.889C170.419 72.6529 170.555 72.3362 170.564 72.0034V60.8223H176.718L182.613 72.6256C182.72 72.819 182.878 72.98 183.069 73.0918C183.259 73.2035 183.477 73.2619 183.698 73.2609H187.217C187.439 73.2683 187.659 73.2168 187.855 73.1116C188.051 73.0065 188.216 72.8515 188.333 72.6622C188.444 72.4624 188.503 72.2374 188.503 72.0087C188.503 71.7799 188.444 71.555 188.333 71.3551L182.352 60.2079C186.393 58.4119 188.887 54.8409 188.887 50.7914ZM183.384 50.8829C183.384 53.7141 181.05 56.1114 178.287 56.1114H170.656V45.8871H178.276C181.045 45.8871 183.374 48.1745 183.374 50.8829H183.384Z" fill="white"/>
<path d="M220.936 65.3241C220.709 65.1401 220.425 65.0428 220.133 65.0495C219.841 65.0562 219.561 65.1665 219.344 65.3607C217.396 66.8717 215.137 68.2703 211.836 68.2703C205.791 68.2703 200.874 63.1804 200.874 56.9192C200.874 50.6581 205.77 45.5237 211.788 45.5237C214.403 45.5237 217.226 46.6243 219.304 48.4465C219.422 48.5835 219.569 48.6926 219.734 48.7659C219.899 48.8391 220.078 48.8747 220.259 48.87C220.414 48.8576 220.565 48.8115 220.7 48.7347C220.835 48.6579 220.953 48.5524 221.043 48.4255L223.009 46.4021C223.134 46.2809 223.232 46.1352 223.298 45.9741C223.363 45.813 223.395 45.6401 223.39 45.4662C223.384 45.2894 223.341 45.1158 223.264 44.9565C223.187 44.7972 223.078 44.6556 222.943 44.5408C219.519 41.5501 216.071 40.2168 211.76 40.2168C202.558 40.2168 195.07 47.7511 195.07 57.0107C195.074 61.4372 196.833 65.6815 199.962 68.8127C203.09 71.9439 207.333 73.7063 211.76 73.7132C213.839 73.7375 215.903 73.3504 217.832 72.5743C219.761 71.7981 221.518 70.6481 223.001 69.1905C223.131 69.0574 223.234 68.8996 223.302 68.7262C223.37 68.5529 223.403 68.3677 223.398 68.1814C223.395 68.0335 223.362 67.8878 223.301 67.753C223.24 67.6182 223.152 67.4972 223.043 67.3972L220.936 65.3241Z" fill="white"/>
<path d="M248.323 68.2258H236.507V41.9395C236.497 41.6073 236.361 41.2912 236.127 41.0557C235.892 40.8201 235.576 40.6828 235.244 40.6716H232.267C231.931 40.673 231.61 40.8072 231.373 41.0448C231.137 41.2825 231.004 41.6042 231.004 41.9395V72.0034C231.003 72.3392 231.136 72.6616 231.373 72.8998C231.609 73.138 231.931 73.2726 232.267 73.274H248.323C248.49 73.2736 248.655 73.2405 248.808 73.1764C248.962 73.1124 249.102 73.0187 249.219 72.9007C249.337 72.7828 249.43 72.6428 249.493 72.4888C249.557 72.3349 249.589 72.1699 249.589 72.0034V69.5068C249.59 69.3394 249.559 69.1734 249.496 69.0182C249.433 68.863 249.34 68.7218 249.223 68.6027C249.105 68.4836 248.965 68.389 248.811 68.3243C248.656 68.2596 248.491 68.2262 248.323 68.2258Z" fill="white"/>
<path d="M275.071 45.7592C275.406 45.7578 275.727 45.6236 275.964 45.386C276.2 45.1483 276.333 44.8266 276.333 44.4913V41.9476C276.333 41.6122 276.2 41.2905 275.964 41.0529C275.727 40.8153 275.406 40.6811 275.071 40.6797H257.032C256.697 40.6811 256.376 40.8153 256.139 41.0529C255.902 41.2905 255.77 41.6122 255.77 41.9476V72.0115C255.769 72.3473 255.901 72.6697 256.138 72.9079C256.375 73.1461 256.696 73.2806 257.032 73.282H275.071C275.406 73.2806 275.728 73.1461 275.965 72.9079C276.201 72.6697 276.334 72.3473 276.333 72.0115V69.5149C276.333 69.1795 276.2 68.8578 275.964 68.6202C275.727 68.3825 275.406 68.2483 275.071 68.247H261.215V59.2775H272.851C273.187 59.2768 273.509 59.1429 273.746 58.9052C273.983 58.6675 274.116 58.3454 274.116 58.0096V55.4685C274.107 55.1353 273.971 54.8182 273.736 54.5821C273.501 54.3459 273.184 54.2085 272.851 54.198H261.223V45.7592H275.071Z" fill="white"/>
</g>
<defs>
<clipPath id="clip0_8758_23324">
<rect width="236.636" height="88.0909" fill="white" transform="translate(39.457 12.9546)"/>
</clipPath>
</defs>
</svg>
