<svg width="273" height="132" viewBox="0 0 273 132" fill="none" xmlns="http://www.w3.org/2000/svg">
<rect x="1" y="1" width="271" height="130" rx="29" fill="#121E28"/>
<rect x="1" y="1" width="271" height="130" rx="29" stroke="#2A3744" stroke-width="2"/>
<path d="M45 80.9056C45 73.5284 50.7841 67.6663 57.8179 67.6663C62.1566 67.6663 65.9683 69.8399 68.006 73.3968L66.0349 74.5823C64.326 71.75 61.2357 69.9716 57.8179 69.9716C52.2308 69.9716 47.5633 74.78 47.5633 80.9056C47.5633 87.0971 52.1642 91.9053 57.8179 91.9053C61.2357 91.9053 64.326 90.1927 66.0349 87.3604L68.006 88.5461C65.9683 92.103 62.1566 94.2766 57.8179 94.2766C50.7841 94.2107 45 88.3485 45 80.9056Z" fill="white"/>
<path d="M75.3675 70.7623C76.025 68.6545 77.5369 67.6665 79.5093 67.6665C81.4817 67.6665 82.9936 68.6545 83.6497 70.7623L90.8805 93.8157H88.3837L86.2144 86.6363L72.936 86.702L70.6348 93.8157H68.1367L75.3675 70.7623ZM73.5269 84.3309H85.4251L81.4817 71.4868C81.1529 70.4329 80.4955 69.906 79.5093 69.906C78.4579 69.906 77.8656 70.4329 77.5369 71.4868L73.5269 84.3309Z" fill="white"/>
<path d="M94.5625 93.8154V68.0614H101.992C108.565 68.0614 113.034 70.9595 113.034 76.9534C113.034 83.1449 108.367 85.9113 102.057 85.9113H96.9954V93.8813H94.5625V93.8154ZM96.9954 70.3667V83.5402H101.992C106.724 83.5402 110.471 81.6301 110.471 76.8875C110.471 72.3428 106.986 70.3009 101.992 70.3009H96.9954V70.3667Z" fill="white"/>
<path d="M118.886 68.0614V93.8154H116.453V68.0614H118.886Z" fill="white"/>
<path d="M140.182 70.3667H131.966V93.8154H129.533V70.3667H121.383V68.0614H140.182V70.3667Z" fill="white"/>
<path d="M145.77 70.7623C146.427 68.6545 147.939 67.6665 149.91 67.6665C151.883 67.6665 153.395 68.6545 154.052 70.7623L161.283 93.8157H158.72L156.55 86.6361L143.272 86.702L141.037 93.8816H138.539L145.77 70.7623ZM143.929 84.3309H155.826L151.883 71.4868C151.554 70.4329 150.896 69.906 149.91 69.906C148.859 69.906 148.268 70.4329 147.939 71.4868L143.929 84.3309Z" fill="white"/>
<path d="M167.392 91.51H180.803V93.8154H167.392C165.552 93.8154 164.961 92.8932 164.961 91.3784V68.0614H167.392V91.51Z" fill="white"/>
<path d="M231.497 73.9745C231.002 75.6298 230.339 77.2022 229.597 78.6093C229.349 79.1058 229.102 79.5197 228.853 80.0163C227.532 81.9199 225.219 83.244 222.74 83.244C220.511 83.244 218.446 82.2508 217.125 80.6783C217.041 80.5955 216.959 80.5128 216.877 80.4301C215.472 78.8575 213.491 77.8643 211.26 77.8643C210.681 77.8643 210.186 77.9471 209.691 78.0299V93.5068C208.039 93.8378 206.221 94.0034 204.487 94.0034C188.794 94.0034 176.156 81.2578 176.156 65.6152C176.156 49.9729 188.711 37.1445 204.405 37.1445C207.378 37.1445 210.268 37.6411 212.994 38.4688L204.569 46.9107L209.691 52.042L227.697 70.0845L228.44 70.8295L231.497 73.9745Z" fill="url(#paint0_linear_8758_23337)"/>
<path d="M45.9297 58.406L48.0383 57.3496C49.1586 59.9247 51.7285 61.3113 55.0233 61.3113C58.5817 61.3113 61.2833 59.4626 61.2833 56.2931C61.2833 52.8596 58.1863 52.1993 54.8256 51.473C50.9378 50.6147 46.5227 49.4922 46.5227 44.342C46.5227 40.3142 50.2788 37.2108 54.7597 37.2108C58.4499 37.2108 61.8106 38.9936 63.1944 42.3611L61.1516 43.4176C59.9654 40.9084 57.725 39.5218 54.6938 39.5218C51.6626 39.5218 49.0268 41.5027 49.0268 44.2099C49.0268 47.6434 52.1898 48.3037 55.6164 49.03C59.5042 49.8884 63.8533 51.0109 63.8533 56.2272C63.7215 60.7831 59.8995 63.6884 55.0233 63.6884C50.9378 63.6884 47.3794 61.8395 45.9297 58.406Z" fill="white"/>
<path d="M68.1367 63.424V37.6067H70.5748V49.4258H85.8626V37.6067H88.3008V63.424H85.8626V51.6708H70.5748V63.3579H68.1367V63.424Z" fill="white"/>
<path d="M97.0631 37.6067V63.424H94.625V37.6067H97.0631Z" fill="white"/>
<path d="M101.48 63.424L105.171 39.9838C105.5 38.135 106.818 37.1445 108.465 37.1445C109.915 37.1445 111.233 37.8709 111.694 39.5216L117.23 59.1321C117.361 59.7263 117.493 59.9245 117.823 59.9245C118.152 59.9245 118.284 59.6603 118.416 59.1321L123.951 39.5876C124.412 37.9369 125.73 37.1445 127.18 37.1445C128.761 37.1445 130.079 38.135 130.409 40.0498L133.769 63.2919H131.331L128.168 40.7101C128.036 39.8517 127.839 39.3235 127.114 39.3235C126.587 39.3235 126.191 39.7857 125.994 40.578L120.261 60.2547C119.931 61.4432 118.943 62.1034 117.823 62.1034C116.768 62.1034 115.714 61.5092 115.384 60.3207L109.651 40.512C109.388 39.7197 109.124 39.3235 108.597 39.3235C108.07 39.3235 107.609 39.7857 107.477 40.7101L103.984 63.358H101.48V63.424Z" fill="white"/>
<path d="M142.928 40.3142C143.587 38.2013 145.103 37.2108 147.08 37.2108C148.991 37.2108 150.572 38.2013 151.231 40.3142L158.48 63.4242H155.975L153.801 56.2272L140.49 56.2931L138.184 63.4242H135.68L142.928 40.3142ZM141.083 53.9161H153.01L149.056 41.0405C148.727 39.984 148.068 39.4558 147.08 39.4558C146.025 39.4558 145.432 39.984 145.103 41.0405L141.083 53.9161Z" fill="white"/>
<defs>
<linearGradient id="paint0_linear_8758_23337" x1="222.792" y1="37.1445" x2="189.345" y2="98.1842" gradientUnits="userSpaceOnUse">
<stop stop-color="white" stop-opacity="0.3"/>
<stop offset="1" stop-color="white"/>
</linearGradient>
</defs>
</svg>
